# xmcd
#
# Track frame offsets:
#	150
#	11303
#	22100
#	34456
#	48703
#	61091
#	74671
#	87518
#	103118
#	119205
#	135517
#	147111
#	160064
#	172929
#	185988
#	198759
#	215513
#	227001
#	241337
#	249627
#
# Disc length: 3465 seconds
#
# Revision: 1
# Processed by: cddbd v1.5.2PL0 Copyright (c) Steve Scherf et al.
# Submitted via: audiograbber 1.83.01
#
DISCID=280d8714
DTITLE=Various Artist - Country ballads   CD 2
DYEAR=1998
DGENRE=Country
TTITLE0=Husbands and Wives  -  Roger Miller
TTITLE1=Misty Blue  -  Billie Jo Speard
TTITLE2=Make the World go away  -  Mickey Gilley
TTITLE3=You´ve never been this before  -  Conway Twitty
TTITLE4=Behind closed doors  -  Charlie Rich
TTITLE5=I wish that I could hurt that way again  -  T. Graham Brown
TTITLE6=Still  -  Bill Anderson
TTITLE7=Daddy´s hands  -  Holly Dunn
TTITLE8=It´s not love ( But it´s not bad )  -  Merle Haggard
TTITLE9=After All  -  Ed Bruce
TTITLE10=I´ve loved and lost again  -  Patsy Cline
TTITLE11=I´m completely Satisfied with You  -  George and Lorrie Morgan
TTITLE12=In the misty moonlight  -  Jerry Wallace
TTITLE13=Only in my dreams  -  Nancy Peppers
TTITLE14=The Tender Years  -  Bobby Bare
TTITLE15=Ring on her finger Time on her hands  -  Lee Greenwood
TTITLE16=Single Girl  -  Sandy Posey
TTITLE17=I Wanna Hear it from you  -  Eddy Raven
TTITLE18=Have you ever been lonly, Have you ever been blue  -  Slim Whithman
TTITLE19=Walkin´ Dreams  -  Patsy Cline
EXTD=
EXTT0=
EXTT1=
EXTT2=
EXTT3=
EXTT4=
EXTT5=
EXTT6=
EXTT7=
EXTT8=
EXTT9=
EXTT10=
EXTT11=
EXTT12=
EXTT13=
EXTT14=
EXTT15=
EXTT16=
EXTT17=
EXTT18=
EXTT19=
PLAYORDER=
